<svg xmlns="http://www.w3.org/2000/svg" width="17" height="17" viewBox="0 0 17 17">
  <g id="noun-link-1119743" transform="translate(-123.2 -53.198)">
    <path id="Path_805" data-name="Path 805" d="M350.783,53.2v1.511h4.6l-5.94,5.939,1.07,1.07,5.939-5.939v4.6h1.511V53.2Z" transform="translate(-217.761)" fill="#9ef8fb"/>
    <path id="Path_804" data-name="Path 804" d="M138.689,67.933a.752.752,0,0,1-.756.756H125.467a.752.752,0,0,1-.756-.756V55.467a.752.752,0,0,1,.756-.756h4.911V53.2h-4.911a2.257,2.257,0,0,0-2.267,2.267V67.933a2.257,2.257,0,0,0,2.267,2.267h12.467a2.257,2.257,0,0,0,2.267-2.267V63.022h-1.511Z" transform="translate(0 -0.002)" fill="#9ef8fb"/>
  </g>
</svg>
